<svg width="123.000000" height="39.000000" viewBox="0 0 123 39" fill="none" xmlns="http://www.w3.org/2000/svg" xmlns:xlink="http://www.w3.org/1999/xlink">
	<desc>
			Created with Pixso.
	</desc>
	<defs>
		<clipPath id="clip1_676">
			<rect id="Frame" rx="0.000000" width="122.000000" height="38.000000" transform="translate(0.500000 0.500000)" fill="white" fill-opacity="0"/>
		</clipPath>
	</defs>
	<rect id="Frame" rx="0.000000" width="122.000000" height="38.000000" transform="translate(0.500000 0.500000)" fill="#FFFFFF" fill-opacity="0"/>
	<g clip-path="url(#clip1_676)">
		<mask id="mask1_683" mask-type="alpha" maskUnits="userSpaceOnUse" x="0.000000" y="0.000000" width="122.615997" height="38.218018">
			<path id="Vector" d="M0 0L122.61 0L122.61 38.21L0 38.21L0 0Z" fill="#000000" fill-opacity="1.000000" fill-rule="evenodd"/>
		</mask>
		<g mask="url(#mask1_683)">
			<path id="Vector" d="M49.13 20.43L47 14.85C46.91 14.62 46.58 14.62 46.49 14.85L44.36 20.43C44.34 20.47 44.34 20.51 44.34 20.55C44.35 20.59 44.37 20.63 44.39 20.67C44.42 20.7 44.45 20.73 44.49 20.75C44.53 20.77 44.57 20.78 44.61 20.78L48.87 20.78C48.92 20.78 48.96 20.77 49 20.75C49.04 20.73 49.07 20.7 49.1 20.67C49.12 20.63 49.14 20.59 49.14 20.55C49.15 20.51 49.14 20.47 49.13 20.43ZM50.11 23.56L43.37 23.56C43.32 23.56 43.27 23.58 43.22 23.61C43.17 23.64 43.14 23.68 43.12 23.73L41.79 27.21C41.78 27.26 41.74 27.3 41.7 27.33C41.65 27.36 41.6 27.38 41.54 27.38L38.62 27.38C38.58 27.38 38.53 27.37 38.49 27.35C38.46 27.33 38.42 27.3 38.4 27.26C38.37 27.23 38.36 27.19 38.35 27.14C38.35 27.1 38.35 27.06 38.37 27.02L45.09 10.75C45.11 10.71 45.15 10.66 45.19 10.63C45.24 10.6 45.29 10.59 45.35 10.59L48.14 10.59C48.25 10.59 48.35 10.65 48.39 10.75L55.12 27.02C55.13 27.06 55.14 27.1 55.13 27.14C55.13 27.19 55.11 27.23 55.09 27.26C55.06 27.3 55.03 27.33 54.99 27.35C54.95 27.37 54.91 27.38 54.87 27.38L51.95 27.38C51.89 27.38 51.84 27.36 51.79 27.33C51.75 27.3 51.71 27.26 51.69 27.21L50.37 23.73C50.35 23.68 50.31 23.64 50.27 23.61C50.22 23.58 50.17 23.56 50.11 23.56ZM56.48 16.3L58.98 16.3C59.05 16.3 59.12 16.32 59.17 16.37C59.22 16.42 59.25 16.49 59.25 16.56L59.25 27.11C59.25 27.18 59.22 27.25 59.17 27.3C59.12 27.35 59.05 27.38 58.98 27.38L56.48 27.38C56.41 27.38 56.34 27.35 56.29 27.3C56.24 27.25 56.21 27.18 56.21 27.11L56.21 16.56C56.21 16.49 56.24 16.42 56.29 16.37C56.34 16.32 56.41 16.3 56.48 16.3ZM68.36 18.86C68.36 18.93 68.33 19 68.28 19.05C68.23 19.1 68.16 19.13 68.09 19.13L68.02 19.13C66.78 19.13 65.88 19.41 65.3 19.99C64.72 20.57 64.44 21.52 64.44 22.84L64.44 27.11C64.44 27.18 64.41 27.25 64.36 27.3C64.31 27.35 64.24 27.38 64.17 27.38L61.69 27.38C61.62 27.38 61.55 27.35 61.5 27.3C61.45 27.25 61.42 27.18 61.42 27.11L61.42 16.56C61.42 16.49 61.45 16.42 61.5 16.37C61.55 16.32 61.62 16.3 61.69 16.3L64.14 16.3C64.21 16.3 64.28 16.32 64.33 16.37C64.38 16.42 64.41 16.49 64.41 16.56L64.41 18.65L64.46 18.65C64.76 17.78 65.23 17.12 65.87 16.66C66.51 16.19 67.3 15.96 68.24 15.96L68.36 15.96L68.36 18.86ZM75.19 18.77C75.12 18.77 75.05 18.79 75 18.84C74.95 18.89 74.92 18.96 74.92 19.03L74.92 23.42C74.92 23.87 75.01 24.19 75.19 24.38C75.38 24.57 75.69 24.67 76.13 24.67L76.38 24.67C76.45 24.67 76.52 24.69 76.57 24.74C76.62 24.79 76.65 24.86 76.65 24.93L76.65 27.14C76.65 27.21 76.62 27.27 76.57 27.32C76.52 27.37 76.45 27.4 76.38 27.4L75.32 27.4C74.21 27.4 73.37 27.12 72.77 26.57C72.18 26.02 71.88 25.2 71.88 24.12L71.88 19.03C71.88 18.96 71.86 18.89 71.81 18.84C71.75 18.79 71.69 18.77 71.61 18.77L70.06 18.77C69.98 18.77 69.91 18.74 69.86 18.69C69.81 18.64 69.79 18.57 69.79 18.5L69.79 16.56C69.79 16.49 69.81 16.42 69.86 16.37C69.91 16.32 69.98 16.3 70.06 16.3L71.61 16.3C71.69 16.3 71.76 16.27 71.81 16.22C71.86 16.17 71.88 16.1 71.88 16.03L71.88 12.12C71.88 12.05 71.91 11.99 71.96 11.94C72.01 11.89 72.08 11.86 72.15 11.86L74.65 11.86C74.72 11.86 74.79 11.89 74.84 11.94C74.89 11.99 74.92 12.05 74.92 12.12L74.92 16.03C74.92 16.1 74.95 16.17 75 16.22C75.05 16.27 75.12 16.3 75.19 16.3L77 16.3C77.07 16.3 77.14 16.32 77.19 16.37C77.24 16.42 77.27 16.49 77.27 16.56L77.27 18.5C77.27 18.57 77.24 18.64 77.19 18.69C77.14 18.74 77.07 18.77 77 18.77L75.19 18.77ZM86.63 24.09C87.2 23.52 87.48 22.76 87.48 21.84C87.48 20.91 87.2 20.16 86.63 19.58C86.06 19.01 85.32 18.72 84.4 18.72C83.47 18.72 82.73 19.01 82.16 19.58C81.59 20.16 81.31 20.91 81.31 21.84C81.31 22.76 81.59 23.52 82.16 24.09C82.73 24.67 83.47 24.95 84.4 24.95C85.32 24.95 86.06 24.67 86.63 24.09ZM80.86 27.04C80.02 26.58 79.36 25.9 78.88 25.01C78.39 24.13 78.15 23.07 78.15 21.84C78.15 20.61 78.39 19.55 78.88 18.66C79.36 17.77 80.02 17.1 80.86 16.63C81.7 16.17 82.63 15.94 83.63 15.94C84.52 15.94 85.28 16.1 85.92 16.44C86.55 16.78 87.06 17.25 87.43 17.86L87.48 17.86L87.48 16.56C87.48 16.49 87.51 16.42 87.56 16.37C87.61 16.32 87.68 16.3 87.75 16.3L90.23 16.3C90.3 16.3 90.37 16.32 90.42 16.37C90.47 16.42 90.5 16.49 90.5 16.56L90.5 27.11C90.5 27.18 90.47 27.25 90.42 27.3C90.37 27.35 90.3 27.38 90.23 27.38L87.75 27.38C87.68 27.38 87.61 27.35 87.56 27.3C87.51 27.25 87.48 27.18 87.48 27.11L87.48 25.82L87.43 25.82C87.06 26.43 86.55 26.9 85.92 27.23C85.28 27.57 84.52 27.74 83.63 27.74C82.63 27.74 81.7 27.5 80.86 27.04ZM100.78 24.09C101.35 23.52 101.64 22.76 101.64 21.84C101.64 20.91 101.35 20.16 100.78 19.58C100.22 19.01 99.47 18.72 98.55 18.72C97.63 18.72 96.88 19.01 96.31 19.58C95.75 20.16 95.46 20.91 95.46 21.84C95.46 22.76 95.75 23.52 96.31 24.09C96.88 24.67 97.63 24.95 98.55 24.95C99.47 24.95 100.22 24.67 100.78 24.09ZM97.03 27.23C96.4 26.9 95.89 26.43 95.51 25.82L95.46 25.82L95.46 27.11C95.46 27.18 95.43 27.25 95.38 27.3C95.33 27.35 95.26 27.38 95.19 27.38L92.69 27.38C92.62 27.38 92.55 27.35 92.5 27.3C92.45 27.25 92.42 27.18 92.42 27.11L92.42 10.85C92.42 10.78 92.45 10.71 92.5 10.67C92.55 10.62 92.62 10.59 92.69 10.59L95.19 10.59C95.26 10.59 95.33 10.62 95.38 10.67C95.43 10.71 95.46 10.78 95.46 10.85L95.46 17.86L95.51 17.86C95.89 17.25 96.4 16.78 97.03 16.44C97.66 16.1 98.42 15.94 99.31 15.94C100.32 15.94 101.24 16.17 102.08 16.63C102.92 17.1 103.58 17.77 104.07 18.66C104.56 19.55 104.8 20.61 104.8 21.84C104.8 23.07 104.56 24.13 104.07 25.01C103.58 25.9 102.92 26.58 102.08 27.04C101.24 27.5 100.32 27.74 99.31 27.74C98.43 27.74 97.66 27.57 97.03 27.23ZM109.01 27.38L106.51 27.38C106.44 27.38 106.37 27.35 106.32 27.3C106.27 27.25 106.24 27.18 106.24 27.11L106.24 10.85C106.24 10.78 106.27 10.72 106.32 10.67C106.37 10.62 106.44 10.59 106.51 10.59L109.01 10.59C109.08 10.59 109.15 10.62 109.2 10.67C109.25 10.72 109.28 10.78 109.28 10.85L109.28 27.11C109.28 27.18 109.25 27.25 109.2 27.3C109.15 27.35 109.08 27.38 109.01 27.38ZM114.9 18.86C114.49 19.18 114.21 19.63 114.06 20.22C114.02 20.39 114.15 20.54 114.33 20.54L119.08 20.54C119.24 20.54 119.37 20.4 119.35 20.24C119.25 19.68 119 19.23 118.6 18.9C118.14 18.51 117.52 18.31 116.76 18.31C116.01 18.31 115.39 18.5 114.9 18.86ZM120.99 17.48C121.96 18.52 122.45 19.97 122.45 21.86L122.45 22.17C122.45 22.24 122.42 22.31 122.37 22.36C122.32 22.41 122.25 22.44 122.18 22.44L114.23 22.44C114.19 22.44 114.16 22.44 114.12 22.46C114.08 22.48 114.05 22.5 114.03 22.53C114 22.56 113.98 22.59 113.97 22.63C113.96 22.67 113.96 22.71 113.97 22.75C114.09 23.45 114.41 24 114.92 24.41C115.51 24.89 116.25 25.12 117.14 25.12C118.28 25.12 119.35 24.69 120.32 23.82C120.44 23.71 120.63 23.73 120.72 23.86L121.94 25.56C121.98 25.61 121.99 25.67 121.99 25.74C121.98 25.8 121.95 25.86 121.9 25.9C121.3 26.41 120.64 26.84 119.93 27.17C119.14 27.55 118.21 27.74 117.14 27.74C115.9 27.74 114.82 27.49 113.9 27.01C112.98 26.52 112.26 25.83 111.75 24.94C111.24 24.06 110.98 23.03 110.98 21.86C110.98 20.69 111.23 19.66 111.73 18.77C112.22 17.87 112.91 17.18 113.8 16.68C114.69 16.19 115.73 15.94 116.91 15.94C118.66 15.94 120.02 16.45 120.99 17.48ZM59.58 12.39C59.58 13.38 58.75 14.19 57.73 14.19C56.71 14.19 55.89 13.38 55.89 12.39C55.89 11.4 56.72 10.6 57.73 10.6C58.75 10.6 59.58 11.41 59.58 12.39Z" fill="#FFFFFF" fill-opacity="1.000000" fill-rule="nonzero"/>
			<path id="Vector" d="M14.22 5.86L2.34 10.63C1.68 10.9 1.69 11.81 2.35 12.06L14.28 16.66C15.33 17.06 16.5 17.06 17.54 16.66L29.47 12.06C30.14 11.81 30.14 10.9 29.48 10.63L17.61 5.86C16.52 5.42 15.3 5.42 14.22 5.86Z" fill="#FCB400" fill-opacity="1.000000" fill-rule="nonzero"/>
			<path id="Vector" d="M16.97 19.16L16.97 30.63C16.97 31.18 17.54 31.55 18.06 31.35L31.35 26.34C31.5 26.29 31.63 26.19 31.72 26.06C31.81 25.93 31.85 25.78 31.85 25.63L31.85 14.15C31.85 13.61 31.29 13.23 30.76 13.43L17.47 18.44C17.33 18.5 17.2 18.6 17.11 18.73C17.02 18.86 16.97 19.01 16.97 19.16Z" fill="#18BFFF" fill-opacity="1.000000" fill-rule="nonzero"/>
			<path id="Vector" d="M13.87 19.75L9.92 21.6L9.52 21.79L1.2 25.66C0.67 25.91 0 25.54 0 24.97L0 14.2C0 14 0.1 13.82 0.25 13.68C0.31 13.63 0.38 13.58 0.45 13.54C0.65 13.42 0.93 13.39 1.18 13.48L13.8 18.34C14.44 18.59 14.49 19.46 13.87 19.75Z" fill="#F82B60" fill-opacity="1.000000" fill-rule="nonzero"/>
			<path id="Vector" d="M13.87 19.75L9.92 21.6L0.25 13.68C0.31 13.63 0.38 13.58 0.45 13.54C0.65 13.42 0.93 13.39 1.18 13.48L13.8 18.34C14.44 18.59 14.49 19.46 13.87 19.75Z" fill="#FFFFFF" fill-opacity="0.250000" fill-rule="nonzero"/>
		</g>
	</g>
</svg>
