<svg width="17.000000" height="22.000000" viewBox="0 0 17 22" fill="none" xmlns="http://www.w3.org/2000/svg" xmlns:xlink="http://www.w3.org/1999/xlink">
	<desc>
			Created with Pixso.
	</desc>
	<defs>
		<clipPath id="clip1_652">
			<rect id="Frame" rx="0.000000" width="16.000000" height="21.000000" transform="translate(0.500000 0.500000)" fill="white" fill-opacity="0"/>
		</clipPath>
	</defs>
	<rect id="Frame" rx="0.000000" width="16.000000" height="21.000000" transform="translate(0.500000 0.500000)" fill="#FFFFFF" fill-opacity="0"/>
	<g clip-path="url(#clip1_652)">
		<path id="Vector" d="M1 12L15 12M1.02 12.03L1 12.05C0.97 12.05 0.94 12.02 0.94 12C0.94 11.97 0.97 11.94 1 11.94L1.02 11.96L1.02 12.03ZM14.98 11.96L15 11.94C15.02 11.94 15.05 11.97 15.05 12C15.05 12.02 15.02 12.05 15 12.05L14.98 12.03L14.98 11.96Z" fill="#000000" fill-opacity="1.000000" fill-rule="nonzero"/>
		<path id="Vector" d="M1 12L15 12" stroke="#FFFFFF" stroke-opacity="1.000000" stroke-width="0.103418" stroke-linejoin="round" stroke-linecap="round"/>
		<path id="Vector" d="M8.94 5.49L15.44 12L8.94 18.5M8.93 5.53L8.9 5.53C8.88 5.51 8.88 5.48 8.9 5.45C8.92 5.43 8.96 5.43 8.98 5.45L8.98 5.48L8.93 5.53ZM8.98 18.51L8.98 18.54C8.96 18.56 8.92 18.56 8.9 18.54C8.88 18.52 8.88 18.48 8.9 18.46L8.93 18.46L8.98 18.51Z" fill="#000000" fill-opacity="1.000000" fill-rule="nonzero"/>
		<path id="Vector" d="M8.94 5.49L15.44 12L8.94 18.5" stroke="#FFFFFF" stroke-opacity="1.000000" stroke-width="0.103418" stroke-linejoin="round" stroke-linecap="round"/>
	</g>
</svg>
