<svg width="102.000000" height="39.000000" viewBox="0 0 102 39" fill="none" xmlns="http://www.w3.org/2000/svg" xmlns:xlink="http://www.w3.org/1999/xlink">
	<desc>
			Created with Pixso.
	</desc>
	<defs>
		<clipPath id="clip1_693">
			<rect id="Frame" rx="0.000000" width="101.000000" height="38.000000" transform="translate(0.500000 0.500000)" fill="white" fill-opacity="0"/>
		</clipPath>
	</defs>
	<rect id="Frame" rx="0.000000" width="101.000000" height="38.000000" transform="translate(0.500000 0.500000)" fill="#FFFFFF" fill-opacity="0"/>
	<g clip-path="url(#clip1_693)">
		<mask id="mask1_701" mask-type="alpha" maskUnits="userSpaceOnUse" x="0.854492" y="0.000000" width="101.119019" height="38.218018">
			<path id="Vector" d="M0.85 0L101.97 0L101.97 38.21L0.85 38.21L0.85 0Z" fill="#000000" fill-opacity="1.000000" fill-rule="evenodd"/>
		</mask>
		<g mask="url(#mask1_701)">
			<path id="Vector" d="M98.75 25.46C98.81 26.15 99.36 27.03 100.32 27.03L100.88 27.03C101.1 27.03 101.28 26.85 101.28 26.64L101.28 14.29L101.28 14.29C101.27 14.08 101.1 13.92 100.88 13.92L99.15 13.92C98.93 13.92 98.76 14.08 98.75 14.29L98.75 14.29L98.75 15.29C97.68 13.98 96 13.43 94.32 13.43C90.49 13.43 87.38 16.54 87.38 20.37C87.38 24.21 90.49 27.32 94.32 27.32C96 27.32 97.84 26.66 98.75 25.46L98.75 25.46ZM94.32 24.89C91.89 24.89 89.91 22.87 89.91 20.37C89.91 17.88 91.89 15.86 94.32 15.86C96.76 15.86 98.74 17.88 98.74 20.37C98.74 22.87 96.76 24.89 94.32 24.89Z" fill="#FFFFFF" fill-opacity="1.000000" fill-rule="evenodd"/>
			<path id="Vector" d="M85.18 19.49C85.18 15.89 82.91 13.46 79.29 13.46C77.57 13.46 76.15 14.46 75.65 15.32C75.54 14.65 75.18 13.95 74.08 13.95L73.52 13.95C73.3 13.95 73.12 14.12 73.12 14.34L73.12 25.49L73.12 25.49L73.12 26.69L73.12 26.69C73.13 26.9 73.31 27.06 73.52 27.06L75.26 27.06C75.28 27.06 75.31 27.06 75.33 27.06C75.35 27.05 75.36 27.05 75.37 27.05C75.38 27.04 75.39 27.04 75.41 27.03C75.42 27.03 75.44 27.02 75.45 27.01C75.46 27.01 75.46 27 75.47 27C75.49 26.99 75.5 26.97 75.52 26.96C75.52 26.96 75.53 26.96 75.53 26.95C75.55 26.94 75.56 26.92 75.57 26.9C75.62 26.84 75.64 26.77 75.65 26.69L75.65 26.69L75.65 19.4C75.65 17.46 77.22 15.89 79.15 15.89C81.08 15.89 82.65 17.46 82.65 19.4L82.65 25.49L82.65 25.49C82.65 25.5 82.65 25.5 82.65 25.51L82.65 26.69L82.66 26.69C82.67 26.9 82.84 27.06 83.05 27.06L84.79 27.06C84.82 27.06 84.84 27.06 84.87 27.06C84.88 27.05 84.89 27.05 84.9 27.05C84.91 27.04 84.93 27.04 84.94 27.03C84.95 27.03 84.97 27.02 84.98 27.01C84.99 27.01 85 27 85 27C85.02 26.99 85.04 26.97 85.05 26.96C85.05 26.96 85.06 26.96 85.06 26.95C85.08 26.94 85.09 26.92 85.11 26.9L85.11 26.9C85.15 26.84 85.18 26.77 85.18 26.69L85.18 26.69L85.18 26.69L85.18 19.49Z" fill="#FFFFFF" fill-opacity="1.000000" fill-rule="evenodd"/>
			<path id="Vector" d="M67.07 25.46C67.13 26.15 67.68 27.03 68.64 27.03L69.2 27.03C69.42 27.03 69.6 26.85 69.6 26.64L69.6 14.29L69.6 14.29C69.59 14.08 69.41 13.92 69.2 13.92L67.46 13.92C67.25 13.92 67.08 14.08 67.07 14.29L67.07 14.29L67.07 15.29C66 13.98 64.32 13.43 62.64 13.43C58.81 13.43 55.7 16.54 55.7 20.37C55.7 24.21 58.81 27.32 62.64 27.32C64.32 27.32 66.16 26.66 67.07 25.46L67.07 25.46ZM62.64 24.89C60.21 24.89 58.23 22.87 58.23 20.37C58.23 17.88 60.21 15.86 62.64 15.86C65.08 15.86 67.05 17.88 67.05 20.37C67.05 22.87 65.08 24.89 62.64 24.89Z" fill="#FFFFFF" fill-opacity="1.000000" fill-rule="evenodd"/>
			<path id="Vector" d="M45.42 23.69C46.58 24.5 47.85 24.89 49.06 24.89C50.22 24.89 51.42 24.28 51.42 23.24C51.42 21.84 48.81 21.62 47.17 21.06C45.52 20.5 44.11 19.35 44.11 17.48C44.11 14.62 46.66 13.43 49.04 13.43C50.54 13.43 52.1 13.93 53.1 14.64C53.45 14.91 53.24 15.21 53.24 15.21L52.28 16.58C52.17 16.74 51.98 16.87 51.71 16.71C51.44 16.54 50.49 15.86 49.04 15.86C47.58 15.86 46.71 16.53 46.71 17.37C46.71 18.36 47.85 18.68 49.18 19.01C51.5 19.64 54.02 20.39 54.02 23.24C54.02 25.76 51.67 27.32 49.06 27.32C47.09 27.32 45.41 26.75 44 25.72C43.71 25.42 43.91 25.15 43.91 25.15L44.87 23.78C45.06 23.53 45.31 23.62 45.42 23.69Z" fill="#FFFFFF" fill-opacity="1.000000" fill-rule="evenodd"/>
			<path id="Vector" d="M38.73 25.46C38.79 26.15 39.34 27.03 40.3 27.03L40.86 27.03C41.08 27.03 41.26 26.85 41.26 26.64L41.26 14.29L41.26 14.29C41.25 14.08 41.08 13.92 40.86 13.92L39.13 13.92C38.91 13.92 38.74 14.08 38.73 14.29L38.73 14.29L38.73 15.29C37.66 13.98 35.98 13.43 34.3 13.43C30.47 13.43 27.36 16.54 27.36 20.37C27.36 24.21 30.47 27.32 34.3 27.32C35.98 27.32 37.82 26.66 38.73 25.46L38.73 25.46ZM34.31 24.89C31.87 24.89 29.89 22.87 29.89 20.37C29.89 17.88 31.87 15.86 34.31 15.86C36.74 15.86 38.72 17.88 38.72 20.37C38.72 22.87 36.74 24.89 34.31 24.89Z" fill="#FFFFFF" fill-opacity="1.000000" fill-rule="evenodd"/>
			<path id="Vector" d="M17.64 20.85C15.06 20.85 12.97 22.94 12.97 25.51C12.97 28.09 15.06 30.18 17.64 30.18C20.22 30.18 22.31 28.09 22.31 25.51C22.31 22.94 20.22 20.85 17.64 20.85ZM5.52 20.85C2.94 20.85 0.85 22.94 0.85 25.51C0.85 28.09 2.94 30.18 5.52 30.18C8.09 30.18 10.18 28.09 10.18 25.51C10.18 22.94 8.09 20.85 5.52 20.85ZM16.25 15.01C16.25 17.59 14.16 19.68 11.58 19.68C9 19.68 6.91 17.59 6.91 15.01C6.91 12.44 9 10.35 11.58 10.35C14.16 10.35 16.25 12.44 16.25 15.01Z" fill="#F06A6A" fill-opacity="1.000000" fill-rule="evenodd"/>
		</g>
	</g>
</svg>
