<svg width="97.000000" height="35.000000" viewBox="0 0 97 35" fill="none" xmlns="http://www.w3.org/2000/svg" xmlns:xlink="http://www.w3.org/1999/xlink">
	<desc>
			Created with Pixso.
	</desc>
	<defs>
		<clipPath id="clip1_686">
			<rect id="Frame" rx="0.000000" width="96.000000" height="34.000000" transform="translate(0.500000 0.500000)" fill="white" fill-opacity="0"/>
		</clipPath>
	</defs>
	<rect id="Frame" rx="0.000000" width="96.000000" height="34.000000" transform="translate(0.500000 0.500000)" fill="#FFFFFF" fill-opacity="0"/>
	<g clip-path="url(#clip1_686)">
		<mask id="mask1_690" mask-type="alpha" maskUnits="userSpaceOnUse" x="0.616211" y="0.000000" width="96.238220" height="34.218018">
			<path id="Vector" d="M0.61 0L96.85 0L96.85 34.21L0.61 34.21L0.61 0Z" fill="#000000" fill-opacity="1.000000" fill-rule="evenodd"/>
		</mask>
		<g mask="url(#mask1_690)">
			<path id="Vector" d="M0.61 1.42L21.39 1.42L21.39 11.81L11 11.81L0.61 1.42ZM0.61 11.81L11 11.81L21.39 22.2L0.61 22.2L0.61 11.81ZM0.61 22.2L11 22.2L11 32.58L0.61 22.2Z" fill="#FFFFFF" fill-opacity="1.000000" fill-rule="nonzero"/>
			<path id="Vector" d="M33.11 9.61L41.51 9.61L41.51 12.28L36.29 12.28L36.29 15.99L41.51 15.99L41.51 18.6L36.29 18.6L36.29 23.35L33.11 23.35L33.11 9.61ZM43.23 13.89L46.23 13.89L46.23 15.87C46.39 15.19 46.71 14.67 47.2 14.3C47.69 13.92 48.24 13.74 48.84 13.74C49.16 13.74 49.42 13.76 49.63 13.81L49.63 16.6C49.33 16.56 49.03 16.54 48.73 16.54C47.9 16.54 47.28 16.81 46.86 17.35C46.44 17.87 46.23 18.65 46.23 19.7L46.23 23.35L43.23 23.35L43.23 13.89L43.23 13.89ZM54.37 23.6C53.45 23.6 52.65 23.39 51.97 22.96C51.31 22.53 50.78 21.91 50.44 21.19C50.09 20.43 49.91 19.58 49.91 18.62C49.91 17.68 50.1 16.83 50.46 16.07C50.81 15.34 51.35 14.72 52.03 14.28C52.73 13.85 53.52 13.64 54.41 13.64C55.07 13.64 55.67 13.78 56.19 14.07C56.72 14.36 57.11 14.75 57.37 15.25L57.37 13.89L60.35 13.89L60.35 23.35L57.37 23.35L57.37 22.02C57.11 22.49 56.7 22.87 56.15 23.17C55.6 23.46 54.99 23.61 54.37 23.6ZM55.23 21.11C55.95 21.11 56.51 20.88 56.9 20.41C57.29 19.94 57.49 19.34 57.49 18.62C57.49 17.91 57.29 17.33 56.9 16.85C56.51 16.38 55.95 16.15 55.23 16.15C54.55 16.15 54 16.38 53.58 16.84C53.18 17.29 52.98 17.89 52.98 18.62C52.98 19.35 53.18 19.95 53.58 20.43C54 20.88 54.55 21.11 55.23 21.11ZM62.45 13.89L65.45 13.89L65.45 15.27C65.66 14.78 66 14.39 66.47 14.09C66.96 13.79 67.52 13.64 68.16 13.64C69.65 13.64 70.64 14.22 71.12 15.38C71.39 14.86 71.81 14.42 72.32 14.13C72.87 13.8 73.5 13.63 74.15 13.64C76.38 13.64 77.5 14.92 77.5 17.48L77.5 23.35L74.48 23.35L74.48 18.03C74.48 17.39 74.36 16.92 74.13 16.62C73.89 16.32 73.54 16.17 73.07 16.17C72.56 16.17 72.16 16.34 71.89 16.7C71.62 17.04 71.48 17.63 71.48 18.48L71.48 23.35L68.46 23.35L68.46 18.01C68.46 17.37 68.34 16.91 68.1 16.62C67.88 16.32 67.53 16.17 67.06 16.17C66.54 16.17 66.14 16.34 65.87 16.7C65.59 17.04 65.45 17.63 65.45 18.48L65.45 23.35L62.45 23.35L62.45 13.89ZM88.78 18.13C88.78 18.54 88.75 18.97 88.7 19.45L81.72 19.45C81.74 20.06 81.95 20.53 82.34 20.86C82.74 21.18 83.27 21.35 83.93 21.35C84.86 21.35 85.45 21.07 85.7 20.5L88.64 20.5C88.5 21.43 87.99 22.18 87.11 22.76C86.25 23.32 85.19 23.6 83.93 23.6C82.31 23.6 81.04 23.17 80.11 22.29C79.19 21.41 78.73 20.19 78.73 18.62C78.73 17.6 78.94 16.72 79.36 15.97C79.76 15.23 80.39 14.62 81.15 14.25C81.92 13.84 82.81 13.64 83.84 13.64C84.8 13.64 85.66 13.83 86.4 14.21C87.16 14.59 87.75 15.12 88.15 15.8C88.57 16.48 88.78 17.25 88.78 18.13ZM85.82 17.58C85.8 16.95 85.63 16.48 85.29 16.15C84.95 15.82 84.45 15.66 83.81 15.66C83.17 15.66 82.66 15.83 82.28 16.19C81.92 16.53 81.73 16.99 81.71 17.58L85.82 17.58ZM90.1 13.89L93.1 13.89L93.1 15.87C93.26 15.19 93.58 14.67 94.07 14.3C94.54 13.93 95.12 13.73 95.71 13.74C96.03 13.74 96.29 13.76 96.5 13.81L96.5 16.6C96.2 16.56 95.9 16.54 95.6 16.54C94.77 16.54 94.15 16.81 93.73 17.35C93.31 17.87 93.1 18.65 93.1 19.7L93.1 23.35L90.1 23.35L90.1 13.89Z" fill="#FFFFFF" fill-opacity="1.000000" fill-rule="nonzero"/>
		</g>
	</g>
</svg>
