<svg width="121.000000" height="30.000000" viewBox="0 0 121 30" fill="none" xmlns="http://www.w3.org/2000/svg" xmlns:xlink="http://www.w3.org/1999/xlink">
	<desc>
			Created with Pixso.
	</desc>
	<defs>
		<clipPath id="clip1_647">
			<rect id="Frame" rx="0.000000" width="120.000000" height="29.000000" transform="translate(0.500000 0.500000)" fill="white" fill-opacity="0"/>
		</clipPath>
		<radialGradient gradientTransform="translate(114.214 33.158) rotate(-167.386) scale(99.6764 318.598)" cx="0.000000" cy="0.000000" r="1.000000" id="paint_radial_1_648_0" gradientUnits="userSpaceOnUse">
			<stop stop-color="#FFFFFF"/>
			<stop offset="0.150000" stop-color="#63FFD1"/>
			<stop offset="0.446000" stop-color="#BF9DFF"/>
			<stop offset="0.682000" stop-color="#FFEA22"/>
			<stop offset="1.000000" stop-color="#FFFFFF"/>
		</radialGradient>
	</defs>
	<rect id="Frame" rx="0.000000" width="120.000000" height="29.000000" transform="translate(0.500000 0.500000)" fill="#FFFFFF" fill-opacity="0"/>
	<g clip-path="url(#clip1_647)">
		<path id="Vector" d="M7.71 29L12.27 29L20.1 10.22L15.31 10.22L11.89 18.85C11.09 20.9 10.41 22.88 10.14 24.06C9.91 23.03 9.27 21.09 8.47 18.85L5.2 10.22L0.26 10.22L7.71 29ZM23.56 6.46C25.08 6.46 26.33 5.21 26.33 3.65C26.34 3.28 26.26 2.92 26.13 2.59C25.99 2.25 25.78 1.94 25.52 1.68C25.27 1.43 24.96 1.22 24.62 1.08C24.29 0.94 23.92 0.87 23.56 0.88C21.96 0.88 20.71 2.09 20.71 3.65C20.71 5.21 21.96 6.46 23.56 6.46ZM21.24 29L25.88 29L25.88 10.22L21.24 10.22L21.24 29ZM33.44 29L33.75 26.07C34.85 28.24 37.24 29.49 40.05 29.49C45.45 29.49 48.98 25.5 48.98 19.72C48.98 13.8 45.72 9.62 40.36 9.62C37.51 9.62 35 10.87 33.78 12.96L33.78 0.72L29.15 0.72L29.15 29L33.44 29ZM33.82 19.53C33.82 16.15 35.91 13.8 39.1 13.8C42.37 13.8 44.31 16.19 44.31 19.53C44.31 22.88 42.37 25.23 39.1 25.23C35.91 25.23 33.82 22.92 33.82 19.53ZM62.94 10.15C62.26 9.97 61.58 9.88 60.88 9.88C58.38 9.88 56.59 11.14 55.79 13L55.53 10.26L51.16 10.26L51.16 29L55.79 29L55.79 19.87C55.79 16.23 57.88 14.44 61.23 14.44L62.94 14.44L62.94 10.15ZM69.4 29.49C72.32 29.49 74.87 28.16 75.67 26.22L76.01 29L80.08 29L80.08 17.6C80.08 12.39 76.96 9.65 71.91 9.65C66.81 9.65 63.47 12.31 63.47 16.38L67.42 16.38C67.42 14.4 68.94 13.26 71.68 13.26C74.03 13.26 75.55 14.29 75.55 16.84L75.55 17.25L69.93 17.67C65.48 18.01 62.98 20.18 62.98 23.64C62.98 27.17 65.41 29.49 69.4 29.49ZM70.92 25.99C68.83 25.99 67.69 25.16 67.69 23.45C67.69 21.93 68.79 20.98 71.68 20.71L75.59 20.41L75.59 21.4C75.59 24.28 73.77 25.99 70.92 25.99ZM87.75 29L87.75 18.89C87.75 15.85 89.49 13.87 92.34 13.87C94.74 13.87 96.3 15.39 96.3 18.54L96.3 29L100.93 29L100.93 17.44C100.93 12.58 98.5 9.65 93.79 9.65C91.24 9.65 88.96 10.76 87.78 12.66L87.4 10.22L83.11 10.22L83.11 29L87.75 29ZM110.35 29L110.35 14.1L114 14.1L114 10.22L110.35 10.22L110.35 4.37L105.71 4.37L105.71 10.22L102.1 10.22L102.1 14.1L105.71 14.1L105.71 29L110.35 29ZM117.33 29.45C119 29.45 120.4 28.08 120.4 26.45C120.4 24.78 119 23.41 117.33 23.41C115.65 23.41 114.25 24.78 114.25 26.45C114.25 28.08 115.65 29.45 117.33 29.45Z" fill="url(#paint_radial_1_648_0)" fill-opacity="1.000000" fill-rule="nonzero"/>
	</g>
</svg>
