<svg width="125.000000" height="36.000000" viewBox="0 0 125 36" fill="none" xmlns="http://www.w3.org/2000/svg" xmlns:xlink="http://www.w3.org/1999/xlink">
	<desc>
			Created with Pixso.
	</desc>
	<defs>
		<clipPath id="clip1_704">
			<rect id="Frame" rx="0.000000" width="124.000000" height="35.000000" transform="translate(0.500000 0.500000)" fill="white" fill-opacity="0"/>
		</clipPath>
	</defs>
	<rect id="Frame" rx="0.000000" width="124.000000" height="35.000000" transform="translate(0.500000 0.500000)" fill="#FFFFFF" fill-opacity="0"/>
	<g clip-path="url(#clip1_704)">
		<mask id="mask1_716" mask-type="alpha" maskUnits="userSpaceOnUse" x="0.972656" y="0.500000" width="123.263000" height="35.218018">
			<path id="Vector" d="M0.97 0.5L124.23 0.5L124.23 35.71L0.97 35.71L0.97 0.5Z" fill="#000000" fill-opacity="1.000000" fill-rule="evenodd"/>
		</mask>
		<g mask="url(#mask1_716)">
			<path id="Vector" d="M57.12 22.83C56.26 23.03 55.82 22.76 55.82 22.19C55.82 21.42 56.62 21.1 57.77 21.1C58.28 21.1 58.75 21.15 58.75 21.15C58.75 21.48 58.03 22.62 57.12 22.83ZM57.99 15.04C55.25 15.04 53.28 16.05 53.28 16.05L53.28 19.01C53.28 19.01 55.45 17.76 57.22 17.76C58.62 17.76 58.8 18.52 58.73 19.15C58.73 19.15 58.33 19.05 57.09 19.05C54.17 19.05 52.69 20.37 52.69 22.5C52.69 24.52 54.35 25.36 55.75 25.36C57.78 25.36 58.68 24 58.95 23.35C59.14 22.9 59.18 22.59 59.35 22.59C59.55 22.59 59.48 22.81 59.47 23.26C59.45 24.04 59.49 24.64 59.62 25.14L62.32 25.14L62.32 20.28C62.32 17.25 61.24 15.04 57.99 15.04Z" fill="#FFFFFF" fill-opacity="1.000000" fill-rule="evenodd"/>
			<path id="Vector" d="M75.77 20.21C75.77 19.32 76.59 18.51 78.11 18.51C79.76 18.51 81.09 19.31 81.38 19.49L81.38 16.05C81.38 16.05 80.33 15.04 77.76 15.04C75.04 15.04 72.78 16.63 72.78 20.05C72.78 23.47 74.83 25.37 77.75 25.37C80.03 25.37 81.39 24.12 81.39 24.12L81.39 20.86C80.96 21.1 79.76 21.93 78.12 21.93C76.39 21.93 75.77 21.13 75.77 20.21ZM39.67 15.27C39.67 15.27 39.84 16.01 39.61 16.97C39.5 17.46 39.28 17.88 39.54 17.88C39.72 17.88 39.72 17.73 39.95 17.21C40.28 16.44 40.99 15.04 42.65 15.04C44.23 15.04 44.97 16 45.21 16.89C45.4 17.57 45.24 17.88 45.47 17.88C45.63 17.88 45.68 17.53 45.88 17.08C46.24 16.28 47.02 15.04 48.6 15.04C50.98 15.04 51.89 16.76 51.89 19.33L51.89 25.14L48.35 25.14L48.35 19.79C48.35 18.9 48.21 18.03 47.39 18.03C46.64 18.03 46.29 19.37 46.29 20.23L46.29 25.14L42.69 25.14L42.69 19.79C42.69 18.65 42.53 18.03 41.72 18.03C41.03 18.03 40.62 19.26 40.62 20.23L40.62 25.14L37.04 25.14L37.04 15.27L39.67 15.27ZM63.49 15.28C63.49 15.28 64.11 15.63 65.29 15.63C66.48 15.63 67.08 15.28 67.08 15.28L67.08 25.14L63.49 25.14L63.49 15.28ZM93.09 15.28C93.09 15.28 93.7 15.63 94.88 15.63C96.07 15.63 96.67 15.28 96.67 15.28L96.67 25.14L93.09 25.14L93.09 15.28ZM71.82 12.28L71.82 25.14L68.24 25.14L68.24 12.28L71.82 12.28ZM85.64 12.28C85.64 12.28 85.79 12.65 85.79 13.75C85.79 15.37 85.44 16.69 85.27 17.2C85.18 17.46 85.03 17.88 85.25 17.88C85.38 17.89 85.46 17.69 85.62 17.35C85.78 17.01 86.57 15.04 88.64 15.04C91.5 15.04 91.92 17.38 91.92 19.92L91.92 25.14L88.34 25.14L88.34 19.7C88.34 18.59 88.1 18.03 87.36 18.03C86.45 18.03 86.13 19.43 86.13 20.23L86.13 25.14L82.55 25.14L82.55 12.28L85.64 12.28ZM100.51 15.27C100.51 15.27 100.68 16.01 100.46 16.97C100.34 17.46 100.13 17.88 100.38 17.88C100.56 17.88 100.56 17.73 100.79 17.21C101.13 16.44 101.84 15.04 103.49 15.04C105.14 15.04 105.79 16 106.06 16.89C106.23 17.49 106.08 17.88 106.31 17.88C106.47 17.88 106.53 17.53 106.73 17.08C107.08 16.28 107.86 15.04 109.44 15.04C111.82 15.04 112.73 16.76 112.73 19.33L112.73 25.14L109.19 25.14L109.19 19.79C109.19 18.9 109.05 18.03 108.24 18.03C107.48 18.03 107.13 19.37 107.13 20.23L107.13 25.14L103.53 25.14L103.53 19.79C103.53 18.65 103.37 18.03 102.57 18.03C101.87 18.03 101.47 19.26 101.47 20.23L101.47 25.14L97.88 25.14L97.88 15.27L100.51 15.27ZM65.27 12.18C64.06 12.18 63.08 12.82 63.08 13.61C63.08 14.4 64.06 15.04 65.27 15.04C66.49 15.04 67.47 14.4 67.47 13.61C67.47 12.82 66.49 12.18 65.27 12.18ZM94.87 12.18C93.66 12.18 92.67 12.82 92.67 13.61C92.67 14.4 93.66 15.04 94.87 15.04C96.08 15.04 97.06 14.4 97.06 13.61C97.06 12.82 96.08 12.18 94.87 12.18Z" fill="#FFFFFF" fill-opacity="1.000000" fill-rule="evenodd"/>
			<path id="Vector" d="M118.84 23.02C118.01 23.02 117.41 21.97 117.41 20.52C117.41 19.11 118.03 18.03 118.81 18.03C119.8 18.03 120.23 18.94 120.23 20.52C120.23 22.16 119.84 23.02 118.84 23.02ZM119.82 15.04C117.98 15.04 117.13 16.42 116.77 17.2C116.52 17.72 116.54 17.88 116.36 17.88C116.1 17.88 116.31 17.46 116.43 16.97C116.66 16 116.48 15.26 116.48 15.26L113.86 15.26L113.86 27.86L117.44 27.86L117.44 23.87C117.87 24.59 118.65 25.36 119.86 25.36C122.45 25.36 123.76 23.16 123.76 20.2C123.76 16.84 122.2 15.04 119.82 15.04Z" fill="#FFFFFF" fill-opacity="1.000000" fill-rule="evenodd"/>
			<path id="Vector" d="M24.37 18.02C24.61 17.99 24.84 17.99 25.05 18.02C25.17 17.73 25.2 17.25 25.08 16.72C24.92 15.94 24.7 15.46 24.24 15.53C23.78 15.61 23.76 16.18 23.93 16.96C24.02 17.4 24.18 17.78 24.37 18.02Z" fill="#FFFFFF" fill-opacity="1.000000" fill-rule="evenodd"/>
			<path id="Vector" d="M20.43 18.64C20.76 18.78 20.96 18.88 21.04 18.79C21.09 18.74 21.07 18.64 20.99 18.52C20.83 18.25 20.5 17.98 20.14 17.83C19.42 17.52 18.56 17.62 17.89 18.1C17.67 18.26 17.46 18.49 17.49 18.62C17.5 18.66 17.54 18.7 17.61 18.71C17.79 18.73 18.43 18.41 19.16 18.36C19.67 18.33 20.1 18.49 20.43 18.64Z" fill="#FFFFFF" fill-opacity="1.000000" fill-rule="evenodd"/>
			<path id="Vector" d="M19.77 19.02C19.34 19.08 19.1 19.22 18.95 19.36C18.82 19.47 18.74 19.59 18.74 19.68C18.74 19.72 18.76 19.75 18.78 19.76C18.8 19.78 18.82 19.79 18.85 19.79C18.94 19.79 19.16 19.7 19.16 19.7C19.76 19.49 20.15 19.51 20.54 19.56C20.75 19.58 20.85 19.59 20.9 19.52C20.92 19.5 20.93 19.45 20.89 19.38C20.79 19.22 20.36 18.95 19.77 19.02Z" fill="#FFFFFF" fill-opacity="1.000000" fill-rule="evenodd"/>
			<path id="Vector" d="M23.04 20.4C23.33 20.54 23.65 20.49 23.75 20.27C23.86 20.06 23.71 19.78 23.41 19.63C23.12 19.49 22.8 19.55 22.7 19.76C22.6 19.97 22.75 20.26 23.04 20.4Z" fill="#FFFFFF" fill-opacity="1.000000" fill-rule="evenodd"/>
			<path id="Vector" d="M24.91 18.77C24.67 18.76 24.47 19.02 24.47 19.35C24.46 19.67 24.65 19.94 24.89 19.94C25.12 19.94 25.32 19.68 25.32 19.36C25.33 19.04 25.14 18.77 24.91 18.77Z" fill="#FFFFFF" fill-opacity="1.000000" fill-rule="evenodd"/>
			<path id="Vector" d="M9.05 24.6C8.99 24.53 8.9 24.55 8.8 24.57C8.74 24.59 8.66 24.61 8.58 24.61C8.41 24.6 8.26 24.53 8.18 24.4C8.07 24.24 8.08 23.99 8.2 23.71L8.25 23.58C8.44 23.16 8.76 22.45 8.4 21.77C8.13 21.26 7.7 20.94 7.17 20.88C6.67 20.81 6.15 21 5.82 21.36C5.3 21.94 5.21 22.72 5.32 23C5.35 23.1 5.41 23.13 5.45 23.14C5.54 23.15 5.67 23.08 5.75 22.86L5.78 22.79C5.82 22.67 5.88 22.46 6 22.28C6.13 22.07 6.34 21.92 6.59 21.87C6.84 21.82 7.09 21.87 7.31 22.01C7.67 22.25 7.82 22.69 7.66 23.12C7.58 23.34 7.45 23.77 7.48 24.11C7.54 24.82 7.97 25.1 8.36 25.13C8.73 25.14 9 24.93 9.06 24.78C9.1 24.68 9.07 24.63 9.05 24.6L9.05 24.6Z" fill="#FFFFFF" fill-opacity="1.000000" fill-rule="evenodd"/>
			<path id="Vector" d="M12.64 11.69C13.88 10.26 15.39 9.03 16.75 8.33C16.8 8.31 16.85 8.36 16.82 8.4C16.72 8.6 16.51 9.02 16.44 9.33C16.43 9.38 16.49 9.42 16.53 9.39C17.37 8.82 18.85 8.2 20.14 8.12C20.19 8.12 20.22 8.19 20.17 8.22C19.98 8.37 19.76 8.58 19.61 8.79C19.58 8.83 19.6 8.88 19.65 8.88C20.56 8.88 21.83 9.2 22.66 9.67C22.72 9.7 22.68 9.81 22.62 9.79C21.36 9.51 19.3 9.29 17.16 9.81C15.24 10.28 13.78 11 12.72 11.77C12.67 11.81 12.6 11.74 12.64 11.69ZM23.87 26.09C23.9 26.07 23.93 26.03 23.92 25.99C23.92 25.94 23.87 25.9 23.82 25.9C23.82 25.9 21.19 26.29 18.71 25.38C18.98 24.5 19.7 24.82 20.78 24.91C22.74 25.03 24.5 24.74 25.8 24.37C26.93 24.04 28.4 23.41 29.55 22.5C29.94 23.35 30.08 24.29 30.08 24.29C30.08 24.29 30.38 24.23 30.63 24.39C30.86 24.53 31.04 24.84 30.92 25.62C30.68 27.08 30.05 28.27 29.01 29.36C28.37 30.05 27.6 30.64 26.72 31.07C26.25 31.32 25.75 31.53 25.22 31.71C21.28 32.99 17.25 31.58 15.95 28.54C15.85 28.31 15.76 28.07 15.69 27.82C15.14 25.82 15.61 23.42 17.08 21.91C17.17 21.81 17.26 21.7 17.26 21.56C17.26 21.44 17.19 21.31 17.12 21.22C16.61 20.48 14.82 19.21 15.18 16.75C15.44 14.98 16.98 13.74 18.42 13.81L18.79 13.83C19.41 13.87 19.96 13.95 20.47 13.97C21.33 14.01 22.11 13.88 23.02 13.12C23.33 12.86 23.58 12.64 24 12.57C24.04 12.56 24.15 12.52 24.37 12.53C24.59 12.54 24.81 12.6 25 12.73C25.73 13.22 25.84 14.4 25.88 15.27C25.9 15.76 25.96 16.96 25.98 17.3C26.02 18.09 26.23 18.2 26.65 18.33C26.88 18.41 27.1 18.47 27.42 18.56C28.39 18.83 28.97 19.11 29.33 19.47C29.55 19.69 29.65 19.92 29.68 20.15C29.8 20.99 29.03 22.02 27.01 22.96C24.8 23.98 22.12 24.24 20.27 24.04L19.62 23.96C18.13 23.76 17.29 25.68 18.18 26.99C18.75 27.84 20.31 28.39 21.88 28.39C25.46 28.39 28.21 26.86 29.24 25.54L29.32 25.42C29.37 25.35 29.33 25.3 29.26 25.35C28.43 25.92 24.71 28.19 20.73 27.51C20.73 27.51 20.25 27.43 19.81 27.26C19.46 27.12 18.73 26.78 18.64 26.03C21.85 27.02 23.87 26.09 23.87 26.09ZM6.24 18.46C5.13 18.68 4.14 19.31 3.54 20.18C3.18 19.88 2.51 19.3 2.39 19.08C1.43 17.25 3.44 13.71 4.84 11.71C8.31 6.76 13.74 3.02 16.25 3.69C16.66 3.81 18.02 5.38 18.02 5.38C18.02 5.38 15.5 6.77 13.17 8.72C10.03 11.13 7.66 14.65 6.24 18.46ZM8.12 26.83C7.95 26.86 7.78 26.87 7.6 26.86C5.92 26.82 4.11 25.31 3.93 23.51C3.73 21.53 4.74 20.01 6.53 19.65C6.75 19.6 7.01 19.58 7.29 19.59C8.29 19.65 9.77 20.42 10.11 22.61C10.41 24.54 9.93 26.52 8.12 26.83ZM30.86 23.32C30.85 23.27 30.75 22.92 30.62 22.51C30.49 22.1 30.36 21.81 30.36 21.81C30.88 21.04 30.89 20.34 30.82 19.95C30.74 19.47 30.54 19.05 30.14 18.63C29.73 18.2 28.9 17.76 27.72 17.43L27.11 17.26C27.11 17.24 27.08 15.81 27.05 15.2C27.03 14.76 26.99 14.07 26.78 13.39C26.53 12.47 26.08 11.67 25.53 11.16C27.06 9.57 28.01 7.82 28.01 6.32C28.01 3.44 24.47 2.57 20.1 4.38L19.18 4.77C19.18 4.77 17.51 3.13 17.48 3.11C12.51 -1.23 -3.04 16.05 1.94 20.25L3.02 21.17C2.74 21.9 2.63 22.74 2.72 23.64C2.84 24.79 3.43 25.9 4.4 26.75C5.31 27.57 6.52 28.08 7.69 28.08C9.62 32.54 14.04 35.27 19.23 35.42C24.78 35.59 29.45 32.98 31.41 28.3C31.53 27.97 32.08 26.49 32.08 25.18C32.08 23.86 31.33 23.32 30.86 23.32Z" fill="#FFFFFF" fill-opacity="1.000000" fill-rule="evenodd"/>
		</g>
	</g>
</svg>
