<svg width="30.000000" height="30.000000" viewBox="0 0 30 30" fill="none" xmlns="http://www.w3.org/2000/svg" xmlns:xlink="http://www.w3.org/1999/xlink">
	<desc>
			Created with Pixso.
	</desc>
	<defs>
		<clipPath id="clip1_725">
			<rect id="Frame" rx="0.000000" width="29.000000" height="29.000000" transform="translate(0.500000 0.500000)" fill="white" fill-opacity="0"/>
		</clipPath>
	</defs>
	<rect id="Frame" rx="0.000000" width="29.000000" height="29.000000" transform="translate(0.500000 0.500000)" fill="#FFFFFF" fill-opacity="0"/>
	<g clip-path="url(#clip1_725)">
		<mask id="mask1_729" mask-type="alpha" maskUnits="userSpaceOnUse" x="0.000000" y="0.250000" width="29.250000" height="29.250000">
			<path id="Vector" d="M0 0.25L29.25 0.25L29.25 29.5L0 29.5L0 0.25Z" fill="#000000" fill-opacity="1.000000" fill-rule="evenodd"/>
		</mask>
		<g mask="url(#mask1_729)">
			<path id="Vector" d="M12 3.37L17 3.37C21.97 3.37 26 7.4 26 12.37L26 17.37C26 22.34 21.97 26.37 17 26.37L12 26.37C7.02 26.37 3 22.34 3 17.37L3 12.37C3 7.4 7.02 3.37 12 3.37Z" fill="#4CBD97" fill-opacity="1.000000" fill-rule="evenodd"/>
			<path id="Vector" d="M19.65 12.13L12.94 18.53L9.59 15.33M19.63 12.13L19.63 12.11C19.64 12.09 19.66 12.09 19.67 12.11C19.68 12.12 19.68 12.14 19.67 12.15L19.64 12.15L19.63 12.13ZM9.6 15.35L9.57 15.35C9.56 15.34 9.56 15.32 9.57 15.31C9.58 15.29 9.6 15.29 9.61 15.3L9.61 15.33L9.6 15.35Z" fill="#000000" fill-opacity="1.000000" fill-rule="nonzero"/>
			<path id="Vector" d="M19.65 12.13L12.94 18.53L9.59 15.33" stroke="#FFFFFF" stroke-opacity="1.000000" stroke-width="0.060937" stroke-linejoin="round" stroke-linecap="round"/>
		</g>
	</g>
</svg>
